<?xml version="1.0" encoding="UTF-8"?>
<!DOCTYPE svg PUBLIC "-//W3C//DTD SVG 1.1//EN" "http://www.w3.org/Graphics/SVG/1.1/DTD/svg11.dtd">
<svg xmlns="http://www.w3.org/2000/svg" version="1.1" width="500px" height="500px" style="shape-rendering:geometricPrecision; text-rendering:geometricPrecision; image-rendering:optimizeQuality; fill-rule:evenodd; clip-rule:evenodd" xmlns:xlink="http://www.w3.org/1999/xlink">
<g><path style="opacity:0.068" fill="#faedf1" d="M 373.5,49.5 C 355.5,49.5 337.5,49.5 319.5,49.5C 300.326,49.1697 281.326,49.503 262.5,50.5C 261.833,50.5 261.167,50.5 260.5,50.5C 259.833,50.5 259.167,50.5 258.5,50.5C 258.918,49.7784 259.584,49.2784 260.5,49C 298.336,48.1689 336.002,48.3356 373.5,49.5 Z"/></g>
<g><path style="opacity:0.471" fill="#dfc5db" d="M 258.5,50.5 C 258.027,51.9063 257.027,52.573 255.5,52.5C 255.973,51.0937 256.973,50.427 258.5,50.5 Z"/></g>
<g><path style="opacity:1" fill="#9b2e9e" d="M 280.5,51.5 C 282.199,51.3398 283.866,51.5065 285.5,52C 284.89,54.4663 285.224,56.9663 286.5,59.5C 284.078,61.0478 284.078,62.7145 286.5,64.5C 286.023,65.4776 285.357,66.3109 284.5,67C 287.443,68.4591 287.776,70.1257 285.5,72C 283.19,72.4966 280.857,72.6633 278.5,72.5C 277.475,72.1034 277.308,71.4368 278,70.5C 279.255,69.7894 280.421,68.956 281.5,68C 278.698,65.305 277.031,62.305 276.5,59C 277.028,55.962 278.362,53.462 280.5,51.5 Z"/></g>
<g><path style="opacity:0.314" fill="#f7c2ad" d="M 319.5,50.5 C 319.5,50.1667 319.5,49.8333 319.5,49.5C 337.5,49.5 355.5,49.5 373.5,49.5C 379.593,49.1392 385.593,49.6392 391.5,51C 393.79,52.7772 395.457,54.9438 396.5,57.5C 396.167,57.5 395.833,57.5 395.5,57.5C 391.926,52.3002 386.926,49.9668 380.5,50.5C 376.833,50.5 373.167,50.5 369.5,50.5C 367.167,50.5 364.833,50.5 362.5,50.5C 361.167,50.5 359.833,50.5 358.5,50.5C 356.833,50.5 355.167,50.5 353.5,50.5C 352.167,50.5 350.833,50.5 349.5,50.5C 345.833,50.5 342.167,50.5 338.5,50.5C 336.5,50.5 334.5,50.5 332.5,50.5C 331.167,50.5 329.833,50.5 328.5,50.5C 326.833,50.5 325.167,50.5 323.5,50.5C 322.833,50.5 322.167,50.5 321.5,50.5C 320.833,50.5 320.167,50.5 319.5,50.5 Z"/></g>
<g><path style="opacity:0.227" fill="#efd5eb" d="M 255.5,52.5 C 255.5,52.8333 255.5,53.1667 255.5,53.5C 254.833,53.8333 254.167,54.1667 253.5,54.5C 253.5,53.1667 254.167,52.5 255.5,52.5 Z"/></g>
<g><path style="opacity:1" fill="#f09b1d" d="M 358.5,50.5 C 359.833,50.5 361.167,50.5 362.5,50.5C 362.293,58.0838 362.626,65.7505 363.5,73.5C 361.5,73.5 359.5,73.5 357.5,73.5C 359.757,65.9534 360.09,58.2867 358.5,50.5 Z"/></g>
<g><path style="opacity:1" fill="#f08b1f" d="M 362.5,50.5 C 364.833,50.5 367.167,50.5 369.5,50.5C 369.5,50.8333 369.5,51.1667 369.5,51.5C 368.448,51.3505 367.448,51.5172 366.5,52C 367.187,57.802 367.854,63.6354 368.5,69.5C 367.477,71.8948 368.477,72.8948 371.5,72.5C 372.167,73.5 372.833,74.5 373.5,75.5C 370.448,73.8217 367.115,73.155 363.5,73.5C 362.626,65.7505 362.293,58.0838 362.5,50.5 Z"/></g>
<g><path style="opacity:1" fill="#f07b1d" d="M 369.5,51.5 C 370.804,56.37 370.804,61.37 369.5,66.5C 371.086,68.1727 371.753,70.1727 371.5,72.5C 368.477,72.8948 367.477,71.8948 368.5,69.5C 367.854,63.6354 367.187,57.802 366.5,52C 367.448,51.5172 368.448,51.3505 369.5,51.5 Z"/></g>
<g><path style="opacity:0.451" fill="#e3bfd1" d="M 253.5,54.5 C 253.267,56.0618 252.6,57.3951 251.5,58.5C 251.167,58.5 250.833,58.5 250.5,58.5C 250.738,56.5956 251.738,55.2623 253.5,54.5 Z"/></g>
<g><path style="opacity:1" fill="#d94f8a" d="M 307.5,50.5 C 309.144,50.2865 310.644,50.6198 312,51.5C 312.282,55.0395 312.782,58.5395 313.5,62C 311.998,64.0057 312.331,65.6723 314.5,67C 312.978,68.9162 311.978,71.0829 311.5,73.5C 310.5,73.5 309.5,73.5 308.5,73.5C 309.278,72.8444 309.944,72.0111 310.5,71C 309.305,69.4675 309.305,67.9675 310.5,66.5C 310.137,60.9218 309.137,55.5884 307.5,50.5 Z"/></g>
<g><path style="opacity:1" fill="#832c99" d="M 262.5,50.5 C 268.167,50.5 273.833,50.5 279.5,50.5C 279.5,51.1667 279.833,51.5 280.5,51.5C 278.362,53.462 277.028,55.962 276.5,59C 277.031,62.305 278.698,65.305 281.5,68C 280.421,68.956 279.255,69.7894 278,70.5C 277.308,71.4368 277.475,72.1034 278.5,72.5C 278.5,72.8333 278.5,73.1667 278.5,73.5C 276.77,74.0256 275.436,75.0256 274.5,76.5C 273.391,76.5569 272.391,76.8902 271.5,77.5C 271.461,76.4168 271.127,75.4168 270.5,74.5C 270.938,73.4937 271.604,73.4937 272.5,74.5C 273.102,70.1641 274.102,65.9975 275.5,62C 275.12,59.6925 274.786,57.3591 274.5,55C 275.167,54 275.833,53 276.5,52C 272.459,51.1735 268.459,51.3401 264.5,52.5C 264.787,177.19 264.787,302.523 264.5,428.5C 265.257,429.773 265.923,429.773 266.5,428.5C 267.5,428.5 268.5,428.5 269.5,428.5C 269.5,428.833 269.5,429.167 269.5,429.5C 269.5,430.167 269.167,430.5 268.5,430.5C 267.833,430.5 267.167,430.5 266.5,430.5C 265.5,430.5 264.5,430.5 263.5,430.5C 263.357,428.738 263.691,427.071 264.5,425.5C 263.834,303.97 263.168,182.47 262.5,61C 263.24,59.2151 263.907,57.3817 264.5,55.5C 263.147,54.4763 262.48,53.143 262.5,51.5C 262.5,51.1667 262.5,50.8333 262.5,50.5 Z"/></g>
<g><path style="opacity:1" fill="#ae349a" d="M 279.5,50.5 C 285.167,50.5 290.833,50.5 296.5,50.5C 297.278,51.1556 297.944,51.9889 298.5,53C 297.521,55.4333 296.855,57.9333 296.5,60.5C 298.103,60.3118 299.437,60.8118 300.5,62C 299.106,62.956 298.439,64.2894 298.5,66C 299.247,67.866 299.581,69.5327 299.5,71C 298.058,71.3768 297.058,72.2101 296.5,73.5C 290.5,73.5 284.5,73.5 278.5,73.5C 278.5,73.1667 278.5,72.8333 278.5,72.5C 280.857,72.6633 283.19,72.4966 285.5,72C 287.776,70.1257 287.443,68.4591 284.5,67C 285.357,66.3109 286.023,65.4776 286.5,64.5C 284.078,62.7145 284.078,61.0478 286.5,59.5C 285.224,56.9663 284.89,54.4663 285.5,52C 283.866,51.5065 282.199,51.3398 280.5,51.5C 279.833,51.5 279.5,51.1667 279.5,50.5 Z"/></g>
<g><path style="opacity:1" fill="#cb3e97" d="M 296.5,50.5 C 300.167,50.5 303.833,50.5 307.5,50.5C 309.137,55.5884 310.137,60.9218 310.5,66.5C 309.305,67.9675 309.305,69.4675 310.5,71C 309.944,72.0111 309.278,72.8444 308.5,73.5C 304.5,73.5 300.5,73.5 296.5,73.5C 297.058,72.2101 298.058,71.3768 299.5,71C 299.581,69.5327 299.247,67.866 298.5,66C 298.439,64.2894 299.106,62.956 300.5,62C 299.437,60.8118 298.103,60.3118 296.5,60.5C 296.855,57.9333 297.521,55.4333 298.5,53C 297.944,51.9889 297.278,51.1556 296.5,50.5 Z"/></g>
<g><path style="opacity:1" fill="#e3855d" d="M 321.5,50.5 C 322.167,50.5 322.833,50.5 323.5,50.5C 324.911,58.157 325.244,65.8237 324.5,73.5C 323.167,73.5 321.833,73.5 320.5,73.5C 321.466,65.9196 321.799,58.253 321.5,50.5 Z"/></g>
<g><path style="opacity:1" fill="#ee6321" d="M 369.5,51.5 C 369.5,51.1667 369.5,50.8333 369.5,50.5C 373.167,50.5 376.833,50.5 380.5,50.5C 380.5,50.8333 380.5,51.1667 380.5,51.5C 379.883,51.6107 379.383,51.944 379,52.5C 378.5,60.8267 378.334,69.16 378.5,77.5C 377.609,76.8902 376.609,76.5569 375.5,76.5C 374.833,76.1667 374.167,75.8333 373.5,75.5C 372.833,74.5 372.167,73.5 371.5,72.5C 371.753,70.1727 371.086,68.1727 369.5,66.5C 370.804,61.37 370.804,56.37 369.5,51.5 Z"/></g>
<g><path style="opacity:0.157" fill="#fad2d1" d="M 396.5,57.5 C 397.906,57.9731 398.573,58.9731 398.5,60.5C 398.167,60.5 397.833,60.5 397.5,60.5C 396.89,59.609 396.557,58.609 396.5,57.5 Z"/></g>
<g><path style="opacity:1" fill="#853194" d="M 262.5,51.5 C 262.48,53.143 263.147,54.4763 264.5,55.5C 263.907,57.3817 263.24,59.2151 262.5,61C 263.168,182.47 263.834,303.97 264.5,425.5C 263.691,427.071 263.357,428.738 263.5,430.5C 264.5,430.5 265.5,430.5 266.5,430.5C 266.5,431.167 266.167,431.5 265.5,431.5C 263.011,431.759 261.344,430.759 260.5,428.5C 261.5,303.334 261.833,178.001 261.5,52.5C 261.5,51.8333 261.833,51.5 262.5,51.5 Z"/></g>
<g><path style="opacity:1" fill="#8e3c88" d="M 260.5,50.5 C 261.167,50.5 261.833,50.5 262.5,50.5C 262.5,50.8333 262.5,51.1667 262.5,51.5C 261.833,51.5 261.5,51.8333 261.5,52.5C 260.683,54.9686 260.183,57.6353 260,60.5C 259.833,120.667 259.667,180.833 259.5,241C 259.513,303.763 259.846,366.263 260.5,428.5C 261.344,430.759 263.011,431.759 265.5,431.5C 265.5,431.833 265.5,432.167 265.5,432.5C 262.833,433.5 260.167,434.5 257.5,435.5C 257.167,435.5 256.833,435.5 256.5,435.5C 256.918,434.778 257.584,434.278 258.5,434C 257.748,433.329 257.414,432.496 257.5,431.5C 258.833,307.833 258.833,184.167 257.5,60.5C 257.643,58.7376 257.309,57.0709 256.5,55.5C 257.857,53.8144 259.19,52.1477 260.5,50.5 Z"/></g>
<g><path style="opacity:1" fill="#e9b13c" d="M 332.5,50.5 C 334.5,50.5 336.5,50.5 338.5,50.5C 338.5,50.8333 338.5,51.1667 338.5,51.5C 337.167,51.5 335.833,51.5 334.5,51.5C 334.5,58.5 334.5,65.5 334.5,72.5C 335.791,72.2627 336.791,72.596 337.5,73.5C 336.167,73.5 334.833,73.5 333.5,73.5C 331.283,65.9269 330.95,58.2603 332.5,50.5 Z"/></g>
<g><path style="opacity:1" fill="#f1be1a" d="M 349.5,50.5 C 350.833,50.5 352.167,50.5 353.5,50.5C 354.12,53.3404 354.787,56.1737 355.5,59C 354.643,59.6891 353.977,60.5224 353.5,61.5C 355.1,65.7746 354.767,69.7746 352.5,73.5C 351.167,73.5 349.833,73.5 348.5,73.5C 349.466,65.9196 349.799,58.253 349.5,50.5 Z"/></g>
<g><path style="opacity:1" fill="#efac1c" d="M 353.5,50.5 C 355.167,50.5 356.833,50.5 358.5,50.5C 360.09,58.2867 359.757,65.9534 357.5,73.5C 355.833,73.5 354.167,73.5 352.5,73.5C 354.767,69.7746 355.1,65.7746 353.5,61.5C 353.977,60.5224 354.643,59.6891 355.5,59C 354.787,56.1737 354.12,53.3404 353.5,50.5 Z"/></g>
<g><path style="opacity:1" fill="#e8a147" d="M 328.5,50.5 C 329.833,50.5 331.167,50.5 332.5,50.5C 330.95,58.2603 331.283,65.9269 333.5,73.5C 332.167,73.5 330.833,73.5 329.5,73.5C 327.19,66.0263 326.857,58.3596 328.5,50.5 Z"/></g>
<g><path style="opacity:1" fill="#f0cc22" d="M 338.5,50.5 C 342.167,50.5 345.833,50.5 349.5,50.5C 349.799,58.253 349.466,65.9196 348.5,73.5C 345.5,73.5 342.5,73.5 339.5,73.5C 338.536,66.2537 338.203,58.9204 338.5,51.5C 338.5,51.1667 338.5,50.8333 338.5,50.5 Z"/></g>
<g><path style="opacity:1" fill="#f3d718" d="M 341.5,51.5 C 343.527,51.3379 345.527,51.5045 347.5,52C 348.022,52.5613 348.355,53.228 348.5,54C 347.879,59.9999 347.546,66.1666 347.5,72.5C 345.5,72.5 343.5,72.5 341.5,72.5C 341.677,65.3326 341.677,58.3326 341.5,51.5 Z"/></g>
<g><path style="opacity:1" fill="#de736d" d="M 319.5,50.5 C 320.167,50.5 320.833,50.5 321.5,50.5C 321.799,58.253 321.466,65.9196 320.5,73.5C 319.167,73.5 317.833,73.5 316.5,73.5C 316.366,71.6331 316.699,69.6331 317.5,67.5C 316.903,61.9458 316.236,56.4458 315.5,51C 316.793,50.51 318.127,50.3433 319.5,50.5 Z"/></g>
<g><path style="opacity:1" fill="#e39055" d="M 323.5,50.5 C 325.167,50.5 326.833,50.5 328.5,50.5C 326.857,58.3596 327.19,66.0263 329.5,73.5C 327.833,73.5 326.167,73.5 324.5,73.5C 325.244,65.8237 324.911,58.157 323.5,50.5 Z"/></g>
<g><path style="opacity:1" fill="#eebf30" d="M 338.5,51.5 C 338.203,58.9204 338.536,66.2537 339.5,73.5C 338.833,73.5 338.167,73.5 337.5,73.5C 336.791,72.596 335.791,72.2627 334.5,72.5C 334.5,65.5 334.5,58.5 334.5,51.5C 335.833,51.5 337.167,51.5 338.5,51.5 Z"/></g>
<g><path style="opacity:1" fill="#dc2e28" d="M 395.5,57.5 C 395.833,57.5 396.167,57.5 396.5,57.5C 396.557,58.609 396.89,59.609 397.5,60.5C 397.5,94.8333 397.5,129.167 397.5,163.5C 396.026,164.436 395.026,165.77 394.5,167.5C 394.167,168.5 393.5,169.167 392.5,169.5C 391.167,169.833 389.833,170.167 388.5,170.5C 388.167,169.833 387.833,169.167 387.5,168.5C 388.901,168.029 390.234,167.362 391.5,166.5C 390.5,164.167 391.167,163.5 393.5,164.5C 394.167,163.5 394.833,162.5 395.5,161.5C 396.806,126.815 396.806,92.1487 395.5,57.5 Z"/></g>
<g><path style="opacity:1" fill="#da6f8b" d="M 262.5,50.5 C 281.326,49.503 300.326,49.1697 319.5,49.5C 319.5,49.8333 319.5,50.1667 319.5,50.5C 318.127,50.3433 316.793,50.51 315.5,51C 316.236,56.4458 316.903,61.9458 317.5,67.5C 316.699,69.6331 316.366,71.6331 316.5,73.5C 315.833,73.5 315.167,73.5 314.5,73.5C 313.5,73.5 312.5,73.5 311.5,73.5C 311.978,71.0829 312.978,68.9162 314.5,67C 312.331,65.6723 311.998,64.0057 313.5,62C 312.782,58.5395 312.282,55.0395 312,51.5C 310.644,50.6198 309.144,50.2865 307.5,50.5C 303.833,50.5 300.167,50.5 296.5,50.5C 290.833,50.5 285.167,50.5 279.5,50.5C 273.833,50.5 268.167,50.5 262.5,50.5 Z"/></g>
<g><path style="opacity:0.427" fill="#e6b8dd" d="M 278.5,73.5 C 284.5,73.5 290.5,73.5 296.5,73.5C 300.5,73.5 304.5,73.5 308.5,73.5C 309.5,73.5 310.5,73.5 311.5,73.5C 312.5,73.5 313.5,73.5 314.5,73.5C 313.432,74.4345 312.099,74.7678 310.5,74.5C 300.75,74.6155 291.583,74.6155 283,74.5C 280.165,75.2331 277.332,75.8997 274.5,76.5C 275.436,75.0256 276.77,74.0256 278.5,73.5 Z"/></g>
<g><path style="opacity:0.025" fill="#fdf2e3" d="M 314.5,73.5 C 315.167,73.5 315.833,73.5 316.5,73.5C 317.833,73.5 319.167,73.5 320.5,73.5C 321.833,73.5 323.167,73.5 324.5,73.5C 326.167,73.5 327.833,73.5 329.5,73.5C 342.167,74.1667 354.833,74.8333 367.5,75.5C 348.326,75.8303 329.326,75.497 310.5,74.5C 312.099,74.7678 313.432,74.4345 314.5,73.5 Z"/></g>
<g><path style="opacity:0.09" fill="#fbddae" d="M 329.5,73.5 C 330.833,73.5 332.167,73.5 333.5,73.5C 334.833,73.5 336.167,73.5 337.5,73.5C 338.167,73.5 338.833,73.5 339.5,73.5C 342.5,73.5 345.5,73.5 348.5,73.5C 349.833,73.5 351.167,73.5 352.5,73.5C 354.167,73.5 355.833,73.5 357.5,73.5C 359.5,73.5 361.5,73.5 363.5,73.5C 367.115,73.155 370.448,73.8217 373.5,75.5C 374.167,75.8333 374.833,76.1667 375.5,76.5C 376.6,77.6049 377.267,78.9382 377.5,80.5C 377.167,80.5 376.833,80.5 376.5,80.5C 374.546,77.1643 371.546,75.4976 367.5,75.5C 354.833,74.8333 342.167,74.1667 329.5,73.5 Z"/></g>
<g><path style="opacity:1" fill="#ed2b25" d="M 380.5,51.5 C 380.5,51.1667 380.5,50.8333 380.5,50.5C 386.926,49.9668 391.926,52.3002 395.5,57.5C 396.806,92.1487 396.806,126.815 395.5,161.5C 394.833,162.5 394.167,163.5 393.5,164.5C 391.167,163.5 390.5,164.167 391.5,166.5C 390.234,167.362 388.901,168.029 387.5,168.5C 386.711,168.217 386.044,167.717 385.5,167C 385.865,140.203 386.198,113.203 386.5,86C 386.416,83.4994 385.75,81.166 384.5,79C 385.742,74.6423 386.408,70.1423 386.5,65.5C 386.333,61.5 386.167,57.5 386,53.5C 385.29,52.0267 384.124,51.3601 382.5,51.5C 381.833,51.5 381.167,51.5 380.5,51.5 Z"/></g>
<g><path style="opacity:0.698" fill="#f29695" d="M 397.5,60.5 C 397.833,60.5 398.167,60.5 398.5,60.5C 399.652,93.7916 399.819,127.125 399,160.5C 398.768,161.737 398.268,162.737 397.5,163.5C 397.5,129.167 397.5,94.8333 397.5,60.5 Z"/></g>
<g><path style="opacity:1" fill="#ef5021" d="M 380.5,51.5 C 381.167,51.5 381.833,51.5 382.5,51.5C 382.526,77.9556 383.192,104.456 384.5,131C 384.273,133.619 383.607,136.119 382.5,138.5C 384.261,142.364 383.594,145.698 380.5,148.5C 380.977,149.478 381.643,150.311 382.5,151C 381.684,152.923 381.017,154.923 380.5,157C 381.412,161.446 381.745,165.946 381.5,170.5C 383.833,170.5 386.167,170.5 388.5,170.5C 384.03,171.486 379.363,171.819 374.5,171.5C 374.5,171.167 374.5,170.833 374.5,170.5C 375.076,164.289 375.076,158.122 374.5,152C 374.95,150.715 375.617,149.548 376.5,148.5C 374.712,147.717 373.712,146.384 373.5,144.5C 376.112,143.723 377.945,142.056 379,139.5C 379.829,118.663 379.663,97.9959 378.5,77.5C 378.334,69.16 378.5,60.8267 379,52.5C 379.383,51.944 379.883,51.6107 380.5,51.5 Z"/></g>
<g><path style="opacity:0.047" fill="#f9d5c4" d="M 376.5,80.5 C 376.833,80.5 377.167,80.5 377.5,80.5C 378.662,99.3289 378.829,118.329 378,137.5C 377.097,141.531 374.597,143.531 370.5,143.5C 372.815,142.416 374.648,140.749 376,138.5C 376.5,119.17 376.667,99.8362 376.5,80.5 Z"/></g>
<g><path style="opacity:0.896" fill="#9655b1" d="M 270.5,80.5 C 270.169,107.672 270.502,134.672 271.5,161.5C 271.158,162.338 270.492,162.672 269.5,162.5C 269.169,134.995 269.502,107.662 270.5,80.5 Z"/></g>
<g><path style="opacity:0.181" fill="#eccff6" d="M 274.5,76.5 C 273.496,77.6828 272.662,79.0161 272,80.5C 271.833,93.6667 271.667,106.833 271.5,120C 271.501,133.517 272.167,146.684 273.5,159.5C 273.167,160.5 272.5,161.167 271.5,161.5C 270.502,134.672 270.169,107.672 270.5,80.5C 270.557,79.391 270.89,78.391 271.5,77.5C 272.391,76.8902 273.391,76.5569 274.5,76.5 Z"/></g>
<g><path style="opacity:1" fill="#da562c" d="M 375.5,76.5 C 376.609,76.5569 377.609,76.8902 378.5,77.5C 379.663,97.9959 379.829,118.663 379,139.5C 377.945,142.056 376.112,143.723 373.5,144.5C 372.833,144.5 372.167,144.5 371.5,144.5C 371.167,144.5 370.833,144.5 370.5,144.5C 370.5,144.167 370.5,143.833 370.5,143.5C 374.597,143.531 377.097,141.531 378,137.5C 378.829,118.329 378.662,99.3289 377.5,80.5C 377.267,78.9382 376.6,77.6049 375.5,76.5 Z"/></g>
<g><path style="opacity:0.757" fill="#efb8c3" d="M 291.5,144.5 C 299.65,143.507 307.983,143.174 316.5,143.5C 318.167,144.167 319.833,144.833 321.5,145.5C 320.833,145.5 320.167,145.5 319.5,145.5C 318.833,145.5 318.167,145.5 317.5,145.5C 315.5,145.5 313.5,145.5 311.5,145.5C 305.021,144.509 298.354,144.176 291.5,144.5 Z"/></g>
<g><path style="opacity:0.867" fill="#f3d4a6" d="M 316.5,143.5 C 334.5,143.5 352.5,143.5 370.5,143.5C 370.5,143.833 370.5,144.167 370.5,144.5C 370.167,144.5 369.833,144.5 369.5,144.5C 356.656,144.171 343.989,144.505 331.5,145.5C 330.5,145.5 329.5,145.5 328.5,145.5C 326.833,145.5 325.167,145.5 323.5,145.5C 322.833,145.5 322.167,145.5 321.5,145.5C 319.833,144.833 318.167,144.167 316.5,143.5 Z"/></g>
<g><path style="opacity:1" fill="#ef3e22" d="M 382.5,51.5 C 384.124,51.3601 385.29,52.0267 386,53.5C 386.167,57.5 386.333,61.5 386.5,65.5C 386.408,70.1423 385.742,74.6423 384.5,79C 385.75,81.166 386.416,83.4994 386.5,86C 386.198,113.203 385.865,140.203 385.5,167C 386.044,167.717 386.711,168.217 387.5,168.5C 387.833,169.167 388.167,169.833 388.5,170.5C 386.167,170.5 383.833,170.5 381.5,170.5C 381.745,165.946 381.412,161.446 380.5,157C 381.017,154.923 381.684,152.923 382.5,151C 381.643,150.311 380.977,149.478 380.5,148.5C 383.594,145.698 384.261,142.364 382.5,138.5C 383.607,136.119 384.273,133.619 384.5,131C 383.192,104.456 382.526,77.9556 382.5,51.5 Z"/></g>
<g><path style="opacity:1" fill="#b1349a" d="M 293.5,146.5 C 293.772,148.611 294.105,150.777 294.5,153C 293.672,153.915 292.672,154.581 291.5,155C 292.309,160.417 292.809,165.917 293,171.5C 293.167,202.667 293.333,233.833 293.5,265C 293.446,301.248 293.113,337.415 292.5,373.5C 293.064,375.819 293.564,378.153 294,380.5C 294.383,379.944 294.883,379.611 295.5,379.5C 294.277,386.824 292.277,393.824 289.5,400.5C 289.511,398.453 289.844,396.453 290.5,394.5C 290.132,393.09 289.299,392.09 288,391.5C 288.04,383.846 288.374,376.179 289,368.5C 289.333,297.833 289.667,227.167 290,156.5C 290.21,153.766 291.044,151.266 292.5,149C 290.143,147.78 290.476,146.947 293.5,146.5 Z"/></g>
<g><path style="opacity:0.627" fill="#d49acb" d="M 291.5,144.5 C 298.354,144.176 305.021,144.509 311.5,145.5C 306.5,145.5 301.5,145.5 296.5,145.5C 291.807,144.54 288.474,146.207 286.5,150.5C 284.251,151.08 282.585,152.413 281.5,154.5C 279.246,155.124 277.579,156.457 276.5,158.5C 275.609,159.11 274.609,159.443 273.5,159.5C 278.91,153.753 284.91,148.753 291.5,144.5 Z"/></g>
<g><path style="opacity:1" fill="#b53998" d="M 293.5,146.5 C 294.5,146.5 295.5,146.5 296.5,146.5C 298.167,146.5 299.833,146.5 301.5,146.5C 300.245,148.28 300.245,150.113 301.5,152C 301.241,153.261 300.574,154.261 299.5,155C 300.167,158 300.833,161 301.5,164C 301.056,165.533 300.723,167.033 300.5,168.5C 301.243,169.182 301.909,169.849 302.5,170.5C 300.265,170.205 298.265,170.539 296.5,171.5C 296.817,240.852 296.483,310.185 295.5,379.5C 294.883,379.611 294.383,379.944 294,380.5C 293.564,378.153 293.064,375.819 292.5,373.5C 293.113,337.415 293.446,301.248 293.5,265C 293.333,233.833 293.167,202.667 293,171.5C 292.809,165.917 292.309,160.417 291.5,155C 292.672,154.581 293.672,153.915 294.5,153C 294.105,150.777 293.772,148.611 293.5,146.5 Z"/></g>
<g><path style="opacity:1" fill="#cf4791" d="M 296.5,146.5 C 296.5,146.167 296.5,145.833 296.5,145.5C 301.5,145.5 306.5,145.5 311.5,145.5C 311.5,145.833 311.5,146.167 311.5,146.5C 310.235,150.412 309.569,154.579 309.5,159C 309.51,163.229 310.177,167.062 311.5,170.5C 311.5,170.833 311.5,171.167 311.5,171.5C 306.833,171.5 302.167,171.5 297.5,171.5C 297.167,171.5 296.833,171.5 296.5,171.5C 298.265,170.539 300.265,170.205 302.5,170.5C 304.144,170.714 305.644,170.38 307,169.5C 307.211,163.782 307.711,158.115 308.5,152.5C 306.914,150.827 306.247,148.827 306.5,146.5C 304.833,146.5 303.167,146.5 301.5,146.5C 299.833,146.5 298.167,146.5 296.5,146.5 Z"/></g>
<g><path style="opacity:1" fill="#f08e1d" d="M 361.5,145.5 C 363.167,145.5 364.833,145.5 366.5,145.5C 366.633,151.315 366.3,157.149 365.5,163C 365.475,165.929 364.809,168.429 363.5,170.5C 362.665,164.25 362.332,157.917 362.5,151.5C 362.76,149.813 363.427,148.313 364.5,147C 363.263,146.768 362.263,146.268 361.5,145.5 Z"/></g>
<g><path style="opacity:1" fill="#ce3d98" d="M 301.5,146.5 C 303.167,146.5 304.833,146.5 306.5,146.5C 306.247,148.827 306.914,150.827 308.5,152.5C 307.711,158.115 307.211,163.782 307,169.5C 305.644,170.38 304.144,170.714 302.5,170.5C 301.909,169.849 301.243,169.182 300.5,168.5C 300.723,167.033 301.056,165.533 301.5,164C 300.833,161 300.167,158 299.5,155C 300.574,154.261 301.241,153.261 301.5,152C 300.245,150.113 300.245,148.28 301.5,146.5 Z"/></g>
<g><path style="opacity:1" fill="#e8a544" d="M 328.5,145.5 C 329.5,145.5 330.5,145.5 331.5,145.5C 335.838,145.622 336.172,145.955 332.5,146.5C 332.373,154.59 332.039,162.59 331.5,170.5C 330.5,170.5 329.5,170.5 328.5,170.5C 328.5,162.5 328.5,154.5 328.5,146.5C 328.5,146.167 328.5,145.833 328.5,145.5 Z"/></g>
<g><path style="opacity:1" fill="#f0ad1a" d="M 354.5,145.5 C 355.833,145.5 357.167,145.5 358.5,145.5C 357.531,153.748 357.198,162.082 357.5,170.5C 356.5,170.5 355.5,170.5 354.5,170.5C 354.5,162.167 354.5,153.833 354.5,145.5 Z"/></g>
<g><path style="opacity:1" fill="#f09f1d" d="M 358.5,145.5 C 359.5,145.5 360.5,145.5 361.5,145.5C 362.263,146.268 363.263,146.768 364.5,147C 363.427,148.313 362.76,149.813 362.5,151.5C 362.332,157.917 362.665,164.25 363.5,170.5C 363.5,170.833 363.5,171.167 363.5,171.5C 359.833,171.5 356.167,171.5 352.5,171.5C 352.5,171.167 352.5,170.833 352.5,170.5C 353.167,170.5 353.833,170.5 354.5,170.5C 355.5,170.5 356.5,170.5 357.5,170.5C 357.198,162.082 357.531,153.748 358.5,145.5 Z"/></g>
<g><path style="opacity:1" fill="#ee8021" d="M 369.5,144.5 C 369.833,144.5 370.167,144.5 370.5,144.5C 370.833,144.5 371.167,144.5 371.5,144.5C 370.53,153.082 370.197,161.749 370.5,170.5C 371.833,170.5 373.167,170.5 374.5,170.5C 374.5,170.833 374.5,171.167 374.5,171.5C 370.833,171.5 367.167,171.5 363.5,171.5C 363.5,171.167 363.5,170.833 363.5,170.5C 364.809,168.429 365.475,165.929 365.5,163C 366.3,157.149 366.633,151.315 366.5,145.5C 367.791,145.737 368.791,145.404 369.5,144.5 Z"/></g>
<g><path style="opacity:1" fill="#ef6d1f" d="M 371.5,144.5 C 372.167,144.5 372.833,144.5 373.5,144.5C 373.712,146.384 374.712,147.717 376.5,148.5C 375.617,149.548 374.95,150.715 374.5,152C 375.076,158.122 375.076,164.289 374.5,170.5C 373.167,170.5 371.833,170.5 370.5,170.5C 370.197,161.749 370.53,153.082 371.5,144.5 Z"/></g>
<g><path style="opacity:1" fill="#de716f" d="M 317.5,145.5 C 318.167,145.5 318.833,145.5 319.5,145.5C 320.067,153.971 320.4,162.638 320.5,171.5C 318.833,171.5 317.167,171.5 315.5,171.5C 316.167,162.833 316.833,154.167 317.5,145.5 Z"/></g>
<g><path style="opacity:1" fill="#982d9e" d="M 281.5,154.5 C 285.012,155.13 285.345,156.63 282.5,159C 282.534,232.823 282.534,306.656 282.5,380.5C 284.259,387.466 284.259,394.299 282.5,401C 282.95,402.285 283.617,403.452 284.5,404.5C 284.154,405.696 283.654,405.696 283,404.5C 282.383,405.449 282.549,406.282 283.5,407C 281.859,408.129 280.859,409.629 280.5,411.5C 279.414,411.38 278.747,410.713 278.5,409.5C 279.822,369.751 280.489,329.917 280.5,290C 280.333,250.833 280.167,211.667 280,172.5C 279.308,171.975 278.808,171.308 278.5,170.5C 279.972,167.851 280.972,165.018 281.5,162C 281.203,159.554 281.203,157.054 281.5,154.5 Z"/></g>
<g><path style="opacity:1" fill="#9f309e" d="M 286.5,150.5 C 284.113,152.287 283.947,154.287 286,156.5C 286.167,194.333 286.333,232.167 286.5,270C 286.463,312.095 286.13,354.095 285.5,396C 286.054,398.824 286.554,401.657 287,404.5C 287.122,402.563 287.955,401.23 289.5,400.5C 288.111,404.944 286.444,409.277 284.5,413.5C 283.094,413.973 282.427,414.973 282.5,416.5C 281.833,416.833 281.167,417.167 280.5,417.5C 280.758,415.19 280.758,413.19 280.5,411.5C 280.859,409.629 281.859,408.129 283.5,407C 282.549,406.282 282.383,405.449 283,404.5C 283.654,405.696 284.154,405.696 284.5,404.5C 283.617,403.452 282.95,402.285 282.5,401C 284.259,394.299 284.259,387.466 282.5,380.5C 282.534,306.656 282.534,232.823 282.5,159C 285.345,156.63 285.012,155.13 281.5,154.5C 282.585,152.413 284.251,151.08 286.5,150.5 Z"/></g>
<g><path style="opacity:1" fill="#a9329d" d="M 296.5,145.5 C 296.5,145.833 296.5,146.167 296.5,146.5C 295.5,146.5 294.5,146.5 293.5,146.5C 290.476,146.947 290.143,147.78 292.5,149C 291.044,151.266 290.21,153.766 290,156.5C 289.667,227.167 289.333,297.833 289,368.5C 288.374,376.179 288.04,383.846 288,391.5C 289.299,392.09 290.132,393.09 290.5,394.5C 289.844,396.453 289.511,398.453 289.5,400.5C 287.955,401.23 287.122,402.563 287,404.5C 286.554,401.657 286.054,398.824 285.5,396C 286.13,354.095 286.463,312.095 286.5,270C 286.333,232.167 286.167,194.333 286,156.5C 283.947,154.287 284.113,152.287 286.5,150.5C 288.474,146.207 291.807,144.54 296.5,145.5 Z"/></g>
<g><path style="opacity:1" fill="#da508b" d="M 311.5,146.5 C 312.283,148.343 312.95,150.343 313.5,152.5C 313.023,153.478 312.357,154.311 311.5,155C 312.824,160.266 312.824,165.433 311.5,170.5C 310.177,167.062 309.51,163.229 309.5,159C 309.569,154.579 310.235,150.412 311.5,146.5 Z"/></g>
<g><path style="opacity:1" fill="#db5d7e" d="M 311.5,146.5 C 311.5,146.167 311.5,145.833 311.5,145.5C 313.5,145.5 315.5,145.5 317.5,145.5C 316.833,154.167 316.167,162.833 315.5,171.5C 314.167,171.5 312.833,171.5 311.5,171.5C 311.5,171.167 311.5,170.833 311.5,170.5C 312.824,165.433 312.824,160.266 311.5,155C 312.357,154.311 313.023,153.478 313.5,152.5C 312.95,150.343 312.283,148.343 311.5,146.5 Z"/></g>
<g><path style="opacity:1" fill="#e59751" d="M 328.5,146.5 C 328.5,154.5 328.5,162.5 328.5,170.5C 329.5,170.5 330.5,170.5 331.5,170.5C 331.5,170.833 331.5,171.167 331.5,171.5C 330.167,171.5 328.833,171.5 327.5,171.5C 327.167,171.5 326.833,171.5 326.5,171.5C 326.5,171.167 326.5,170.833 326.5,170.5C 326.246,162.277 326.912,154.277 328.5,146.5 Z"/></g>
<g><path style="opacity:1" fill="#e07f65" d="M 319.5,145.5 C 320.167,145.5 320.833,145.5 321.5,145.5C 322.167,145.5 322.833,145.5 323.5,145.5C 322.367,153.421 322.2,161.421 323,169.5C 324.011,170.337 325.178,170.67 326.5,170.5C 326.5,170.833 326.5,171.167 326.5,171.5C 324.5,171.5 322.5,171.5 320.5,171.5C 320.4,162.638 320.067,153.971 319.5,145.5 Z"/></g>
<g><path style="opacity:1" fill="#e48b58" d="M 323.5,145.5 C 325.167,145.5 326.833,145.5 328.5,145.5C 328.5,145.833 328.5,146.167 328.5,146.5C 326.912,154.277 326.246,162.277 326.5,170.5C 325.178,170.67 324.011,170.337 323,169.5C 322.2,161.421 322.367,153.421 323.5,145.5 Z"/></g>
<g><path style="opacity:1" fill="#ecb845" d="M 331.5,145.5 C 343.989,144.505 356.656,144.171 369.5,144.5C 368.791,145.404 367.791,145.737 366.5,145.5C 364.833,145.5 363.167,145.5 361.5,145.5C 360.5,145.5 359.5,145.5 358.5,145.5C 357.167,145.5 355.833,145.5 354.5,145.5C 352.5,145.5 350.5,145.5 348.5,145.5C 344.563,145.207 340.73,145.54 337,146.5C 336.5,154.493 336.334,162.493 336.5,170.5C 337.791,170.263 338.791,170.596 339.5,171.5C 336.833,171.5 334.167,171.5 331.5,171.5C 331.5,171.167 331.5,170.833 331.5,170.5C 332.039,162.59 332.373,154.59 332.5,146.5C 336.172,145.955 335.838,145.622 331.5,145.5 Z"/></g>
<g><path style="opacity:1" fill="#f0c822" d="M 348.5,145.5 C 349.209,146.404 350.209,146.737 351.5,146.5C 351.756,148.792 351.423,150.959 350.5,153C 351.148,158.933 351.814,164.766 352.5,170.5C 352.5,170.833 352.5,171.167 352.5,171.5C 348.167,171.5 343.833,171.5 339.5,171.5C 338.791,170.596 337.791,170.263 336.5,170.5C 336.334,162.493 336.5,154.493 337,146.5C 340.73,145.54 344.563,145.207 348.5,145.5 Z"/></g>
<g><path style="opacity:1" fill="#f3d61a" d="M 340.5,146.5 C 342.857,146.337 345.19,146.503 347.5,147C 348.022,147.561 348.355,148.228 348.5,149C 347.694,155.909 347.361,163.076 347.5,170.5C 345.167,170.5 342.833,170.5 340.5,170.5C 340.39,162.35 340.39,154.35 340.5,146.5 Z"/></g>
<g><path style="opacity:1" fill="#f1bb19" d="M 348.5,145.5 C 350.5,145.5 352.5,145.5 354.5,145.5C 354.5,153.833 354.5,162.167 354.5,170.5C 353.833,170.5 353.167,170.5 352.5,170.5C 351.814,164.766 351.148,158.933 350.5,153C 351.423,150.959 351.756,148.792 351.5,146.5C 350.209,146.737 349.209,146.404 348.5,145.5 Z"/></g>
<g><path style="opacity:1" fill="#7b279e" d="M 271.5,77.5 C 270.89,78.391 270.557,79.391 270.5,80.5C 269.502,107.662 269.169,134.995 269.5,162.5C 268.662,162.158 268.328,161.492 268.5,160.5C 268.5,153.833 268.5,147.167 268.5,140.5C 267.448,140.351 266.448,140.517 265.5,141C 266.787,229.725 266.787,318.392 265.5,407C 266.863,414.17 267.197,421.337 266.5,428.5C 265.923,429.773 265.257,429.773 264.5,428.5C 264.787,302.523 264.787,177.19 264.5,52.5C 268.459,51.3401 272.459,51.1735 276.5,52C 275.833,53 275.167,54 274.5,55C 274.786,57.3591 275.12,59.6925 275.5,62C 274.102,65.9975 273.102,70.1641 272.5,74.5C 271.604,73.4937 270.938,73.4937 270.5,74.5C 271.127,75.4168 271.461,76.4168 271.5,77.5 Z"/></g>
<g><path style="opacity:1" fill="#7c24a0" d="M 268.5,160.5 C 267.596,161.209 267.263,162.209 267.5,163.5C 270.966,163.277 271.966,164.611 270.5,167.5C 271.135,168.966 271.969,170.3 273,171.5C 273.484,251.068 273.65,330.568 273.5,410C 271.264,413.677 270.93,417.511 272.5,421.5C 272.074,422.528 272.074,423.861 272.5,425.5C 271.833,426.833 270.833,427.833 269.5,428.5C 268.5,428.5 267.5,428.5 266.5,428.5C 267.197,421.337 266.863,414.17 265.5,407C 266.787,318.392 266.787,229.725 265.5,141C 266.448,140.517 267.448,140.351 268.5,140.5C 268.5,147.167 268.5,153.833 268.5,160.5 Z"/></g>
<g><path style="opacity:1" fill="#8b28a0" d="M 276.5,158.5 C 275.781,160.764 275.448,163.097 275.5,165.5C 276.675,165.281 277.675,165.614 278.5,166.5C 277.67,247.126 277.17,327.793 277,408.5C 276.727,410.101 276.227,411.601 275.5,413C 276.449,413.617 277.282,413.451 278,412.5C 277.689,413.935 277.855,415.268 278.5,416.5C 276.703,417.695 275.703,419.362 275.5,421.5C 274.5,421.5 273.5,421.5 272.5,421.5C 270.93,417.511 271.264,413.677 273.5,410C 273.65,330.568 273.484,251.068 273,171.5C 271.969,170.3 271.135,168.966 270.5,167.5C 271.966,164.611 270.966,163.277 267.5,163.5C 267.263,162.209 267.596,161.209 268.5,160.5C 268.328,161.492 268.662,162.158 269.5,162.5C 270.492,162.672 271.158,162.338 271.5,161.5C 272.5,161.167 273.167,160.5 273.5,159.5C 274.609,159.443 275.609,159.11 276.5,158.5 Z"/></g>
<g><path style="opacity:0.196" fill="#fbcfcc" d="M 397.5,163.5 C 397.446,165.632 396.446,166.965 394.5,167.5C 395.026,165.77 396.026,164.436 397.5,163.5 Z"/></g>
<g><path style="opacity:1" fill="#9e477b" d="M 258.5,50.5 C 259.167,50.5 259.833,50.5 260.5,50.5C 259.19,52.1477 257.857,53.8144 256.5,55.5C 257.309,57.0709 257.643,58.7376 257.5,60.5C 256.549,61.9187 256.216,63.5853 256.5,65.5C 256.159,184.808 255.159,304.142 253.5,423.5C 253.817,402.866 253.484,382.032 252.5,361C 253.328,259.851 253.828,158.684 254,57.5C 254.791,56.255 255.291,54.9217 255.5,53.5C 255.5,53.1667 255.5,52.8333 255.5,52.5C 257.027,52.573 258.027,51.9063 258.5,50.5 Z"/></g>
<g><path style="opacity:1" fill="#a14f74" d="M 255.5,53.5 C 255.291,54.9217 254.791,56.255 254,57.5C 253.828,158.684 253.328,259.851 252.5,361C 253.484,382.032 253.817,402.866 253.5,423.5C 254.754,425.357 254.754,427.357 253.5,429.5C 254.801,431.444 255.801,433.444 256.5,435.5C 256.833,435.5 257.167,435.5 257.5,435.5C 255.574,437.293 253.241,438.293 250.5,438.5C 250.483,436.435 250.15,434.435 249.5,432.5C 250.117,432.389 250.617,432.056 251,431.5C 251.236,429.236 251.736,427.069 252.5,425C 251.632,302.947 251.299,180.781 251.5,58.5C 252.6,57.3951 253.267,56.0618 253.5,54.5C 254.167,54.1667 254.833,53.8333 255.5,53.5 Z"/></g>
<g><path style="opacity:1" fill="#ac657b" d="M 250.5,58.5 C 250.833,58.5 251.167,58.5 251.5,58.5C 251.299,180.781 251.632,302.947 252.5,425C 251.736,427.069 251.236,429.236 251,431.5C 250.617,432.056 250.117,432.389 249.5,432.5C 249.256,418.233 249.256,403.9 249.5,389.5C 249.333,387.167 249.167,384.833 249,382.5C 249.053,385.675 248.22,388.342 246.5,390.5C 247.092,387.873 247.425,385.206 247.5,382.5C 247.933,377.167 248.433,371.834 249,366.5C 249.169,263.763 249.669,161.097 250.5,58.5 Z"/></g>
<g><path style="opacity:1" fill="#984181" d="M 256.5,65.5 C 257.233,185.457 257.566,305.624 257.5,426C 257.05,427.285 256.383,428.452 255.5,429.5C 255.855,430.522 256.522,431.189 257.5,431.5C 257.414,432.496 257.748,433.329 258.5,434C 257.584,434.278 256.918,434.778 256.5,435.5C 255.801,433.444 254.801,431.444 253.5,429.5C 254.754,427.357 254.754,425.357 253.5,423.5C 255.159,304.142 256.159,184.808 256.5,65.5 Z"/></g>
<g><path style="opacity:1" fill="#933e84" d="M 257.5,60.5 C 258.833,184.167 258.833,307.833 257.5,431.5C 256.522,431.189 255.855,430.522 255.5,429.5C 256.383,428.452 257.05,427.285 257.5,426C 257.566,305.624 257.233,185.457 256.5,65.5C 256.216,63.5853 256.549,61.9187 257.5,60.5 Z"/></g>
<g><path style="opacity:1" fill="#8a378d" d="M 261.5,52.5 C 261.833,178.001 261.5,303.334 260.5,428.5C 259.846,366.263 259.513,303.763 259.5,241C 259.667,180.833 259.833,120.667 260,60.5C 260.183,57.6353 260.683,54.9686 261.5,52.5 Z"/></g>
<g><path style="opacity:0.252" fill="#fad2e2" d="M 297.5,171.5 C 302.167,171.5 306.833,171.5 311.5,171.5C 312.833,171.5 314.167,171.5 315.5,171.5C 317.167,171.5 318.833,171.5 320.5,171.5C 322.5,171.5 324.5,171.5 326.5,171.5C 326.833,171.5 327.167,171.5 327.5,171.5C 327.5,171.833 327.5,172.167 327.5,172.5C 317.24,171.898 307.24,172.564 297.5,174.5C 297.5,173.5 297.5,172.5 297.5,171.5 Z"/></g>
<g><path style="opacity:0.41" fill="#f9ddbd" d="M 392.5,169.5 C 391.942,170.79 390.942,171.623 389.5,172C 385.5,172.5 381.5,173 377.5,173.5C 360.853,173.771 344.186,173.437 327.5,172.5C 327.5,172.167 327.5,171.833 327.5,171.5C 328.833,171.5 330.167,171.5 331.5,171.5C 334.167,171.5 336.833,171.5 339.5,171.5C 343.833,171.5 348.167,171.5 352.5,171.5C 356.167,171.5 359.833,171.5 363.5,171.5C 367.167,171.5 370.833,171.5 374.5,171.5C 379.363,171.819 384.03,171.486 388.5,170.5C 389.833,170.167 391.167,169.833 392.5,169.5 Z"/></g>
<g><path style="opacity:1" fill="#922da0" d="M 281.5,154.5 C 281.203,157.054 281.203,159.554 281.5,162C 280.972,165.018 279.972,167.851 278.5,170.5C 278.808,171.308 279.308,171.975 280,172.5C 280.167,211.667 280.333,250.833 280.5,290C 280.489,329.917 279.822,369.751 278.5,409.5C 278.747,410.713 279.414,411.38 280.5,411.5C 280.758,413.19 280.758,415.19 280.5,417.5C 279.4,418.605 278.733,419.938 278.5,421.5C 277.5,423.167 276.167,424.5 274.5,425.5C 273.833,425.5 273.167,425.5 272.5,425.5C 272.074,423.861 272.074,422.528 272.5,421.5C 273.5,421.5 274.5,421.5 275.5,421.5C 275.703,419.362 276.703,417.695 278.5,416.5C 277.855,415.268 277.689,413.935 278,412.5C 277.282,413.451 276.449,413.617 275.5,413C 276.227,411.601 276.727,410.101 277,408.5C 277.17,327.793 277.67,247.126 278.5,166.5C 277.675,165.614 276.675,165.281 275.5,165.5C 275.448,163.097 275.781,160.764 276.5,158.5C 277.579,156.457 279.246,155.124 281.5,154.5 Z"/></g>
<g><path style="opacity:0.555" fill="#e1b8d7" d="M 296.5,171.5 C 296.833,171.5 297.167,171.5 297.5,171.5C 297.5,172.5 297.5,173.5 297.5,174.5C 298.663,239.763 298.829,305.096 298,370.5C 297.741,373.587 297.241,376.587 296.5,379.5C 296.167,379.5 295.833,379.5 295.5,379.5C 296.483,310.185 296.817,240.852 296.5,171.5 Z"/></g>
<g><path style="opacity:0.424" fill="#b8c2e1" d="M 116.5,363.5 C 116.5,363.833 116.5,364.167 116.5,364.5C 113.615,364.194 110.948,364.527 108.5,365.5C 106.167,365.5 103.833,365.5 101.5,365.5C 106.25,363.969 111.25,363.302 116.5,363.5 Z"/></g>
<g><path style="opacity:1" fill="#3b54a2" d="M 101.5,365.5 C 103.833,365.5 106.167,365.5 108.5,365.5C 111.5,365.5 114.5,365.5 117.5,365.5C 117.667,380.17 117.5,394.837 117,409.5C 115.122,413.64 113.622,413.473 112.5,409C 113.381,406.309 112.381,405.809 109.5,407.5C 105.268,400.476 102.602,392.809 101.5,384.5C 101.5,378.167 101.5,371.833 101.5,365.5 Z"/></g>
<g><path style="opacity:0.048" fill="#f1f2d2" d="M 145.5,371.5 C 145.167,371.5 144.833,371.5 144.5,371.5C 144.81,368.287 144.477,365.287 143.5,362.5C 142.432,361.566 141.099,361.232 139.5,361.5C 138.209,361.263 137.209,361.596 136.5,362.5C 135.167,362.5 133.833,362.5 132.5,362.5C 130.5,362.5 128.5,362.5 126.5,362.5C 132.026,361.247 137.693,360.414 143.5,360C 144,360.5 144.5,361 145,361.5C 145.498,364.817 145.665,368.15 145.5,371.5 Z"/></g>
<g><path style="opacity:1" fill="#8f9866" d="M 132.5,363.5 C 132.333,386.169 132.5,408.836 133,431.5C 133.708,432.381 134.542,433.047 135.5,433.5C 135.557,434.609 135.89,435.609 136.5,436.5C 133.63,435.567 131.296,433.9 129.5,431.5C 129.5,408.833 129.5,386.167 129.5,363.5C 130.5,363.5 131.5,363.5 132.5,363.5 Z"/></g>
<g><path style="opacity:1" fill="#869178" d="M 116.5,363.5 C 119.625,362.521 122.958,362.187 126.5,362.5C 128.5,362.5 130.5,362.5 132.5,362.5C 132.5,362.833 132.5,363.167 132.5,363.5C 131.5,363.5 130.5,363.5 129.5,363.5C 129.5,386.167 129.5,408.833 129.5,431.5C 126.911,430.581 124.911,428.914 123.5,426.5C 124.167,426.5 124.833,426.5 125.5,426.5C 125.81,427.738 126.31,427.738 127,426.5C 127.167,416 127.333,405.5 127.5,395C 127.499,384.145 126.832,373.645 125.5,363.5C 125.167,363.5 124.833,363.5 124.5,363.5C 121.833,363.5 119.167,363.5 116.5,363.5 Z"/></g>
<g><path style="opacity:1" fill="#455a9d" d="M 108.5,365.5 C 110.948,364.527 113.615,364.194 116.5,364.5C 117.167,364.5 117.833,364.5 118.5,364.5C 119.167,378.47 119.833,392.47 120.5,406.5C 119.738,410.111 119.238,413.778 119,417.5C 117.989,418.337 116.822,418.67 115.5,418.5C 115.262,416.596 114.262,415.262 112.5,414.5C 112.573,412.973 111.906,411.973 110.5,411.5C 110.167,410.167 109.833,408.833 109.5,407.5C 112.381,405.809 113.381,406.309 112.5,409C 113.622,413.473 115.122,413.64 117,409.5C 117.5,394.837 117.667,380.17 117.5,365.5C 114.5,365.5 111.5,365.5 108.5,365.5 Z"/></g>
<g><path style="opacity:1" fill="#526694" d="M 118.5,364.5 C 119.5,364.5 120.5,364.5 121.5,364.5C 121.667,379.504 121.5,394.504 121,409.5C 121.094,413.633 120.26,417.299 118.5,420.5C 117.833,420.167 117.167,419.833 116.5,419.5C 115.833,419.5 115.5,419.167 115.5,418.5C 116.822,418.67 117.989,418.337 119,417.5C 119.238,413.778 119.738,410.111 120.5,406.5C 119.833,392.47 119.167,378.47 118.5,364.5 Z"/></g>
<g><path style="opacity:1" fill="#5f708a" d="M 116.5,364.5 C 116.5,364.167 116.5,363.833 116.5,363.5C 119.167,363.5 121.833,363.5 124.5,363.5C 123.335,382.547 123.335,401.547 124.5,420.5C 124.415,422.333 123.748,423.666 122.5,424.5C 120.833,423.5 119.5,422.167 118.5,420.5C 120.26,417.299 121.094,413.633 121,409.5C 121.5,394.504 121.667,379.504 121.5,364.5C 120.5,364.5 119.5,364.5 118.5,364.5C 117.833,364.5 117.167,364.5 116.5,364.5 Z"/></g>
<g><path style="opacity:1" fill="#748179" d="M 125.5,363.5 C 126.832,373.645 127.499,384.145 127.5,395C 127.333,405.5 127.167,416 127,426.5C 126.31,427.738 125.81,427.738 125.5,426.5C 125.5,405.5 125.5,384.5 125.5,363.5 Z"/></g>
<g><path style="opacity:1" fill="#9ca358" d="M 132.5,362.5 C 133.833,362.5 135.167,362.5 136.5,362.5C 135.511,386.092 135.177,409.759 135.5,433.5C 134.542,433.047 133.708,432.381 133,431.5C 132.5,408.836 132.333,386.169 132.5,363.5C 132.5,363.167 132.5,362.833 132.5,362.5 Z"/></g>
<g><path style="opacity:1" fill="#adb04c" d="M 139.5,361.5 C 139.539,362.756 139.039,363.756 138,364.5C 137.833,375 137.667,385.5 137.5,396C 137.884,408.11 137.884,420.11 137.5,432C 138.099,433.622 138.766,435.122 139.5,436.5C 140.167,436.5 140.5,436.833 140.5,437.5C 139.833,437.5 139.167,437.5 138.5,437.5C 137.508,437.672 136.842,437.338 136.5,436.5C 135.89,435.609 135.557,434.609 135.5,433.5C 135.177,409.759 135.511,386.092 136.5,362.5C 137.209,361.596 138.209,361.263 139.5,361.5 Z"/></g>
<g><path style="opacity:1" fill="#b6b744" d="M 139.5,361.5 C 141.099,361.232 142.432,361.566 143.5,362.5C 141.224,362.756 140.057,364.09 140,366.5C 139.5,389.831 139.333,413.164 139.5,436.5C 138.766,435.122 138.099,433.622 137.5,432C 137.884,420.11 137.884,408.11 137.5,396C 137.667,385.5 137.833,375 138,364.5C 139.039,363.756 139.539,362.756 139.5,361.5 Z"/></g>
<g><path style="opacity:1" fill="#dbd86b" d="M 143.5,362.5 C 144.477,365.287 144.81,368.287 144.5,371.5C 144.833,374.167 145.167,376.833 145.5,379.5C 145.167,379.5 144.833,379.5 144.5,379.5C 144.371,377.784 144.038,376.117 143.5,374.5C 143.5,370.5 143.5,366.5 143.5,362.5 Z"/></g>
<g><path style="opacity:0.688" fill="#a6afd1" d="M 101.5,365.5 C 101.5,371.833 101.5,378.167 101.5,384.5C 101.167,384.5 100.833,384.5 100.5,384.5C 98.991,377.98 99.3243,371.647 101.5,365.5 Z"/></g>
<g><path style="opacity:0.624" fill="#f9f6ba" d="M 144.5,371.5 C 144.833,371.5 145.167,371.5 145.5,371.5C 146.887,378.329 148.887,384.996 151.5,391.5C 150.833,391.167 150.167,390.833 149.5,390.5C 148.019,386.925 146.686,383.258 145.5,379.5C 145.167,376.833 144.833,374.167 144.5,371.5 Z"/></g>
<g><path style="opacity:0.106" fill="#f2cfee" d="M 295.5,379.5 C 295.833,379.5 296.167,379.5 296.5,379.5C 295.433,388.1 293.267,396.433 290,404.5C 288.643,407.898 286.81,410.898 284.5,413.5C 286.444,409.277 288.111,404.944 289.5,400.5C 292.277,393.824 294.277,386.824 295.5,379.5 Z"/></g>
<g><path style="opacity:0.894" fill="#f4f081" d="M 149.5,390.5 C 150.167,390.833 150.833,391.167 151.5,391.5C 152.338,391.842 152.672,392.508 152.5,393.5C 152.5,394.167 152.5,394.833 152.5,395.5C 151.11,394.101 150.11,392.434 149.5,390.5 Z"/></g>
<g><path style="opacity:0.235" fill="#fefdcc" d="M 152.5,393.5 C 153.906,393.973 154.573,394.973 154.5,396.5C 153.833,396.167 153.167,395.833 152.5,395.5C 152.5,394.833 152.5,394.167 152.5,393.5 Z"/></g>
<g><path style="opacity:0.918" fill="#d6a8a6" d="M 247.5,382.5 C 247.425,385.206 247.092,387.873 246.5,390.5C 245.694,391.997 245.028,393.664 244.5,395.5C 244.043,396.298 243.376,396.631 242.5,396.5C 244.193,391.748 245.86,387.081 247.5,382.5 Z"/></g>
<g><path style="opacity:0.145" fill="#fefdd4" d="M 154.5,396.5 C 155.906,396.973 156.573,397.973 156.5,399.5C 155.094,399.027 154.427,398.027 154.5,396.5 Z"/></g>
<g><path style="opacity:0.412" fill="#ebd1c4" d="M 242.5,396.5 C 242.267,398.062 241.6,399.395 240.5,400.5C 240.167,400.5 239.833,400.5 239.5,400.5C 239.738,398.596 240.738,397.262 242.5,396.5 Z"/></g>
<g><path style="opacity:0.408" fill="#fdfdc4" d="M 156.5,399.5 C 158.262,400.262 159.262,401.596 159.5,403.5C 158.5,402.833 157.5,402.167 156.5,401.5C 156.5,400.833 156.5,400.167 156.5,399.5 Z"/></g>
<g><path style="opacity:1" fill="#b05b67" d="M 249.5,432.5 C 250.15,434.435 250.483,436.435 250.5,438.5C 250.158,439.338 249.492,439.672 248.5,439.5C 247.5,439.5 246.5,439.5 245.5,439.5C 246.135,427.332 246.802,415.166 247.5,403C 247.363,398.831 247.03,394.664 246.5,390.5C 248.22,388.342 249.053,385.675 249,382.5C 249.167,384.833 249.333,387.167 249.5,389.5C 249.256,403.9 249.256,418.233 249.5,432.5 Z"/></g>
<g><path style="opacity:0.286" fill="#c2cae3" d="M 100.5,384.5 C 100.833,384.5 101.167,384.5 101.5,384.5C 102.602,392.809 105.268,400.476 109.5,407.5C 109.833,408.833 110.167,410.167 110.5,411.5C 104.422,403.609 101.089,394.609 100.5,384.5 Z"/></g>
<g><path style="opacity:1" fill="#687881" d="M 124.5,363.5 C 124.833,363.5 125.167,363.5 125.5,363.5C 125.5,384.5 125.5,405.5 125.5,426.5C 124.833,426.5 124.167,426.5 123.5,426.5C 123.167,425.833 122.833,425.167 122.5,424.5C 123.748,423.666 124.415,422.333 124.5,420.5C 123.335,401.547 123.335,382.547 124.5,363.5 Z"/></g>
<g><path style="opacity:0.427" fill="#e7c7b0" d="M 239.5,400.5 C 239.443,401.609 239.11,402.609 238.5,403.5C 236.95,404.441 235.284,405.107 233.5,405.5C 235.46,403.844 237.46,402.177 239.5,400.5 Z"/></g>
<g><path style="opacity:1" fill="#cc7a48" d="M 238.5,403.5 C 239.44,415.483 239.773,427.483 239.5,439.5C 239.248,441.073 238.582,442.406 237.5,443.5C 236.292,444.234 234.959,444.567 233.5,444.5C 233.5,444.167 233.5,443.833 233.5,443.5C 234.181,441.842 235.015,440.175 236,438.5C 236.354,427.82 236.854,417.153 237.5,406.5C 235.784,406.629 234.117,406.962 232.5,407.5C 232.833,406.833 233.167,406.167 233.5,405.5C 235.284,405.107 236.95,404.441 238.5,403.5 Z"/></g>
<g><path style="opacity:1" fill="#d9d42b" d="M 144.5,379.5 C 144.833,379.5 145.167,379.5 145.5,379.5C 146.686,383.258 148.019,386.925 149.5,390.5C 148.542,390.047 147.708,389.381 147,388.5C 146.182,405.907 146.348,423.24 147.5,440.5C 146.508,440.672 145.842,440.338 145.5,439.5C 145.217,438.711 144.717,438.044 144,437.5C 143.171,417.996 143.338,398.662 144.5,379.5 Z"/></g>
<g><path style="opacity:1" fill="#bb655d" d="M 246.5,390.5 C 247.03,394.664 247.363,398.831 247.5,403C 246.802,415.166 246.135,427.332 245.5,439.5C 246.5,439.5 247.5,439.5 248.5,439.5C 246.739,440.313 245.072,441.313 243.5,442.5C 242.833,442.5 242.167,442.5 241.5,442.5C 241.5,442.167 241.5,441.833 241.5,441.5C 242.289,441.217 242.956,440.717 243.5,440C 243.579,428.954 243.412,417.787 243,406.5C 242.79,404.942 242.29,403.609 241.5,402.5C 241.672,401.508 241.338,400.842 240.5,400.5C 241.6,399.395 242.267,398.062 242.5,396.5C 243.376,396.631 244.043,396.298 244.5,395.5C 245.028,393.664 245.694,391.997 246.5,390.5 Z"/></g>
<g><path style="opacity:1" fill="#c5c33c" d="M 143.5,362.5 C 143.5,366.5 143.5,370.5 143.5,374.5C 142.883,374.389 142.383,374.056 142,373.5C 141.333,394.5 141.333,415.5 142,436.5C 142.513,437.527 143.013,438.527 143.5,439.5C 142.833,439.5 142.167,439.5 141.5,439.5C 141.167,438.833 140.833,438.167 140.5,437.5C 140.5,436.833 140.167,436.5 139.5,436.5C 139.333,413.164 139.5,389.831 140,366.5C 140.057,364.09 141.224,362.756 143.5,362.5 Z"/></g>
<g><path style="opacity:1" fill="#ceca33" d="M 143.5,374.5 C 144.038,376.117 144.371,377.784 144.5,379.5C 143.338,398.662 143.171,417.996 144,437.5C 144.717,438.044 145.217,438.711 145.5,439.5C 144.833,439.5 144.167,439.5 143.5,439.5C 143.013,438.527 142.513,437.527 142,436.5C 141.333,415.5 141.333,394.5 142,373.5C 142.383,374.056 142.883,374.389 143.5,374.5 Z"/></g>
<g><path style="opacity:1" fill="#eae51b" d="M 149.5,390.5 C 150.11,392.434 151.11,394.101 152.5,395.5C 153.167,395.833 153.833,396.167 154.5,396.5C 154.427,398.027 155.094,399.027 156.5,399.5C 156.5,400.167 156.5,400.833 156.5,401.5C 156.461,402.756 156.961,403.756 158,404.5C 158.167,410 158.333,415.5 158.5,421C 158.455,427.007 157.788,432.84 156.5,438.5C 157.325,439.386 158.325,439.719 159.5,439.5C 159.67,440.822 159.337,441.989 158.5,443C 156.203,443.018 153.869,442.851 151.5,442.5C 149.847,442.34 148.514,441.674 147.5,440.5C 146.348,423.24 146.182,405.907 147,388.5C 147.708,389.381 148.542,390.047 149.5,390.5 Z"/></g>
<g><path style="opacity:1" fill="#c06a55" d="M 241.5,402.5 C 242.29,403.609 242.79,404.942 243,406.5C 243.412,417.787 243.579,428.954 243.5,440C 242.956,440.717 242.289,441.217 241.5,441.5C 241.396,428.595 241.396,415.595 241.5,402.5 Z"/></g>
<g><path style="opacity:0.412" fill="#eef3b3" d="M 159.5,403.5 C 164.577,407.036 169.91,410.036 175.5,412.5C 174.833,412.5 174.167,412.5 173.5,412.5C 172.833,412.5 172.167,412.5 171.5,412.5C 169.209,411.235 166.875,409.902 164.5,408.5C 164.167,408.5 163.833,408.5 163.5,408.5C 161.633,407.24 160.3,405.573 159.5,403.5 Z"/></g>
<g><path style="opacity:1" fill="#d7813c" d="M 233.5,443.5 C 232.343,432.401 232.343,421.401 233.5,410.5C 232.675,409.614 231.675,409.281 230.5,409.5C 231.167,408.833 231.833,408.167 232.5,407.5C 234.117,406.962 235.784,406.629 237.5,406.5C 236.854,417.153 236.354,427.82 236,438.5C 235.015,440.175 234.181,441.842 233.5,443.5 Z"/></g>
<g><path style="opacity:0.875" fill="#f2cf9e" d="M 233.5,405.5 C 233.167,406.167 232.833,406.833 232.5,407.5C 231.833,408.167 231.167,408.833 230.5,409.5C 227.743,410.512 225.076,411.512 222.5,412.5C 221.167,412.833 219.833,413.167 218.5,413.5C 217.167,413.5 215.833,413.5 214.5,413.5C 221.105,411.627 227.439,408.96 233.5,405.5 Z"/></g>
<g><path style="opacity:0.02" fill="#d7dfef" d="M 110.5,411.5 C 111.906,411.973 112.573,412.973 112.5,414.5C 111.094,414.027 110.427,413.027 110.5,411.5 Z"/></g>
<g><path style="opacity:1" fill="#c6734f" d="M 239.5,400.5 C 239.833,400.5 240.167,400.5 240.5,400.5C 241.338,400.842 241.672,401.508 241.5,402.5C 241.396,415.595 241.396,428.595 241.5,441.5C 241.5,441.833 241.5,442.167 241.5,442.5C 240.167,442.833 238.833,443.167 237.5,443.5C 238.582,442.406 239.248,441.073 239.5,439.5C 239.773,427.483 239.44,415.483 238.5,403.5C 239.11,402.609 239.443,401.609 239.5,400.5 Z"/></g>
<g><path style="opacity:0.009" fill="#fbf7d8" d="M 214.5,413.5 C 213.329,414.345 211.995,415.011 210.5,415.5C 209.167,415.5 207.833,415.5 206.5,415.5C 204.833,415.5 203.167,415.5 201.5,415.5C 205.657,414.551 209.99,413.884 214.5,413.5 Z"/></g>
<g><path style="opacity:0.031" fill="#f1d8f3" d="M 284.5,413.5 C 284.573,415.027 283.906,416.027 282.5,416.5C 282.427,414.973 283.094,413.973 284.5,413.5 Z"/></g>
<g><path style="opacity:0.012" fill="#d3dbed" d="M 112.5,414.5 C 114.262,415.262 115.262,416.596 115.5,418.5C 113.738,417.738 112.738,416.404 112.5,414.5 Z"/></g>
<g><path style="opacity:0.502" fill="#d9e7a8" d="M 175.5,412.5 C 184.025,414.622 192.691,415.622 201.5,415.5C 203.167,415.5 204.833,415.5 206.5,415.5C 203.375,416.479 200.042,416.813 196.5,416.5C 190.394,416.623 184.394,415.956 178.5,414.5C 177.29,414.068 176.29,413.401 175.5,412.5 Z"/></g>
<g><path style="opacity:1" fill="#9bca39" d="M 173.5,412.5 C 174.167,412.5 174.833,412.5 175.5,412.5C 176.29,413.401 177.29,414.068 178.5,414.5C 179.635,416.213 181.302,416.88 183.5,416.5C 183.181,426.749 183.514,436.916 184.5,447C 182.618,447.198 180.952,447.698 179.5,448.5C 176.615,448.806 173.948,448.473 171.5,447.5C 171.833,447.5 172.167,447.5 172.5,447.5C 174.199,447.66 175.866,447.494 177.5,447C 176.844,436.228 176.177,425.394 175.5,414.5C 174.478,414.145 173.811,413.478 173.5,412.5 Z"/></g>
<g><path style="opacity:1" fill="#a5b537" d="M 198.5,417.5 C 199.583,417.539 200.583,417.873 201.5,418.5C 202.499,428.478 202.832,438.478 202.5,448.5C 198.5,448.5 194.5,448.5 190.5,448.5C 190.842,447.662 191.508,447.328 192.5,447.5C 194.833,447.5 197.167,447.5 199.5,447.5C 198.731,437.59 198.397,427.59 198.5,417.5 Z"/></g>
<g><path style="opacity:1" fill="#d4de26" d="M 156.5,401.5 C 157.5,402.167 158.5,402.833 159.5,403.5C 160.3,405.573 161.633,407.24 163.5,408.5C 162.733,409.172 162.066,410.005 161.5,411C 162.291,422.239 162.624,433.405 162.5,444.5C 161.5,444.5 160.5,444.5 159.5,444.5C 156.447,444.889 153.78,444.223 151.5,442.5C 153.869,442.851 156.203,443.018 158.5,443C 159.337,441.989 159.67,440.822 159.5,439.5C 158.325,439.719 157.325,439.386 156.5,438.5C 157.788,432.84 158.455,427.007 158.5,421C 158.333,415.5 158.167,410 158,404.5C 156.961,403.756 156.461,402.756 156.5,401.5 Z"/></g>
<g><path style="opacity:1" fill="#99bb3b" d="M 178.5,414.5 C 184.394,415.956 190.394,416.623 196.5,416.5C 196.842,417.338 197.508,417.672 198.5,417.5C 198.397,427.59 198.731,437.59 199.5,447.5C 197.167,447.5 194.833,447.5 192.5,447.5C 193.338,438.325 193.504,428.991 193,419.5C 190.113,417.816 186.946,416.816 183.5,416.5C 181.302,416.88 179.635,416.213 178.5,414.5 Z"/></g>
<g><path style="opacity:1" fill="#e28d31" d="M 230.5,409.5 C 231.675,409.281 232.675,409.614 233.5,410.5C 232.343,421.401 232.343,432.401 233.5,443.5C 233.5,443.833 233.5,444.167 233.5,444.5C 233.167,444.5 232.833,444.5 232.5,444.5C 230.435,444.517 228.435,444.85 226.5,445.5C 227.343,434.711 227.676,423.711 227.5,412.5C 225.833,412.5 224.167,412.5 222.5,412.5C 225.076,411.512 227.743,410.512 230.5,409.5 Z"/></g>
<g><path style="opacity:0.039" fill="#f1d4f1" d="M 282.5,416.5 C 281.92,418.749 280.587,420.415 278.5,421.5C 278.733,419.938 279.4,418.605 280.5,417.5C 281.167,417.167 281.833,416.833 282.5,416.5 Z"/></g>
<g><path style="opacity:0.004" fill="#dce2ea" d="M 116.5,419.5 C 117.167,419.833 117.833,420.167 118.5,420.5C 119.5,422.167 120.833,423.5 122.5,424.5C 122.833,425.167 123.167,425.833 123.5,426.5C 120.167,425.167 117.833,422.833 116.5,419.5 Z"/></g>
<g><path style="opacity:1" fill="#a9cf32" d="M 171.5,412.5 C 172.167,412.5 172.833,412.5 173.5,412.5C 173.811,413.478 174.478,414.145 175.5,414.5C 176.177,425.394 176.844,436.228 177.5,447C 175.866,447.494 174.199,447.66 172.5,447.5C 172.204,437.626 172.537,427.793 173.5,418C 172.144,416.433 171.477,414.6 171.5,412.5 Z"/></g>
<g><path style="opacity:1" fill="#c5d926" d="M 163.5,408.5 C 163.833,408.5 164.167,408.5 164.5,408.5C 167.288,414.97 168.621,421.803 168.5,429C 168.376,433.617 167.709,438.117 166.5,442.5C 166.818,443.647 167.484,444.481 168.5,445C 165.518,445.498 162.518,445.665 159.5,445.5C 159.5,445.167 159.5,444.833 159.5,444.5C 160.5,444.5 161.5,444.5 162.5,444.5C 162.624,433.405 162.291,422.239 161.5,411C 162.066,410.005 162.733,409.172 163.5,408.5 Z"/></g>
<g><path style="opacity:1" fill="#b3b234" d="M 206.5,415.5 C 207.833,415.5 209.167,415.5 210.5,415.5C 209.152,416.186 207.985,417.186 207,418.5C 206.609,425.828 206.442,432.995 206.5,440C 207.641,442.623 207.974,445.123 207.5,447.5C 207.5,447.833 207.5,448.167 207.5,448.5C 205.833,448.5 204.167,448.5 202.5,448.5C 202.832,438.478 202.499,428.478 201.5,418.5C 200.583,417.873 199.583,417.539 198.5,417.5C 197.508,417.672 196.842,417.338 196.5,416.5C 200.042,416.813 203.375,416.479 206.5,415.5 Z"/></g>
<g><path style="opacity:1" fill="#dda525" d="M 222.5,412.5 C 219.247,420.879 218.914,429.379 221.5,438C 217.703,440.19 217.703,442.19 221.5,444C 220.944,444.383 220.611,444.883 220.5,445.5C 219.167,445.833 217.833,446.167 216.5,446.5C 215.653,444.971 214.986,443.304 214.5,441.5C 214.346,434.717 214.679,427.884 215.5,421C 212.786,417.173 213.786,414.673 218.5,413.5C 219.833,413.167 221.167,412.833 222.5,412.5 Z"/></g>
<g><path style="opacity:1" fill="#b8d42e" d="M 164.5,408.5 C 166.875,409.902 169.209,411.235 171.5,412.5C 171.477,414.6 172.144,416.433 173.5,418C 172.537,427.793 172.204,437.626 172.5,447.5C 172.167,447.5 171.833,447.5 171.5,447.5C 167.534,446.838 163.534,446.505 159.5,446.5C 159.5,446.167 159.5,445.833 159.5,445.5C 162.518,445.665 165.518,445.498 168.5,445C 167.484,444.481 166.818,443.647 166.5,442.5C 167.709,438.117 168.376,433.617 168.5,429C 168.621,421.803 167.288,414.97 164.5,408.5 Z"/></g>
<g><path style="opacity:1" fill="#87c03f" d="M 183.5,416.5 C 186.946,416.816 190.113,417.816 193,419.5C 193.504,428.991 193.338,438.325 192.5,447.5C 191.508,447.328 190.842,447.662 190.5,448.5C 186.833,448.5 183.167,448.5 179.5,448.5C 180.952,447.698 182.618,447.198 184.5,447C 183.514,436.916 183.181,426.749 183.5,416.5 Z"/></g>
<g><path style="opacity:1" fill="#c9ab2d" d="M 214.5,413.5 C 215.833,413.5 217.167,413.5 218.5,413.5C 213.786,414.673 212.786,417.173 215.5,421C 214.679,427.884 214.346,434.717 214.5,441.5C 214.986,443.304 215.653,444.971 216.5,446.5C 213.545,447.159 210.545,447.492 207.5,447.5C 207.974,445.123 207.641,442.623 206.5,440C 206.442,432.995 206.609,425.828 207,418.5C 207.985,417.186 209.152,416.186 210.5,415.5C 211.995,415.011 213.329,414.345 214.5,413.5 Z"/></g>
<g><path style="opacity:1" fill="#ee9e20" d="M 222.5,412.5 C 224.167,412.5 225.833,412.5 227.5,412.5C 227.676,423.711 227.343,434.711 226.5,445.5C 224.5,445.5 222.5,445.5 220.5,445.5C 220.611,444.883 220.944,444.383 221.5,444C 217.703,442.19 217.703,440.19 221.5,438C 218.914,429.379 219.247,420.879 222.5,412.5 Z"/></g>
<g><path style="opacity:0.004" fill="#f1e0f5" d="M 272.5,425.5 C 273.167,425.5 273.833,425.5 274.5,425.5C 273.415,427.587 271.749,428.92 269.5,429.5C 269.5,429.167 269.5,428.833 269.5,428.5C 270.833,427.833 271.833,426.833 272.5,425.5 Z"/></g>
<g><path style="opacity:0.004" fill="#f3e7f7" d="M 266.5,430.5 C 267.167,430.5 267.833,430.5 268.5,430.5C 268.027,431.906 267.027,432.573 265.5,432.5C 265.5,432.167 265.5,431.833 265.5,431.5C 266.167,431.5 266.5,431.167 266.5,430.5 Z"/></g>
<g><path style="opacity:0.306" fill="#e4c8d7" d="M 265.5,432.5 C 258.97,437.429 251.637,440.762 243.5,442.5C 245.072,441.313 246.739,440.313 248.5,439.5C 249.492,439.672 250.158,439.338 250.5,438.5C 253.241,438.293 255.574,437.293 257.5,435.5C 260.167,434.5 262.833,433.5 265.5,432.5 Z"/></g>
<g><path style="opacity:0.224" fill="#f3f2c7" d="M 138.5,437.5 C 139.167,437.5 139.833,437.5 140.5,437.5C 140.833,438.167 141.167,438.833 141.5,439.5C 139.973,439.573 138.973,438.906 138.5,437.5 Z"/></g>
<g><path style="opacity:0.871" fill="#f4f3a6" d="M 141.5,439.5 C 142.167,439.5 142.833,439.5 143.5,439.5C 144.167,439.5 144.833,439.5 145.5,439.5C 145.842,440.338 146.508,440.672 147.5,440.5C 148.514,441.674 149.847,442.34 151.5,442.5C 153.78,444.223 156.447,444.889 159.5,444.5C 159.5,444.833 159.5,445.167 159.5,445.5C 159.5,445.833 159.5,446.167 159.5,446.5C 152.823,445.722 146.823,443.389 141.5,439.5 Z"/></g>
<g><path style="opacity:0.09" fill="#f7e3ce" d="M 241.5,442.5 C 242.167,442.5 242.833,442.5 243.5,442.5C 239.195,444.746 234.529,446.08 229.5,446.5C 230.5,445.833 231.5,445.167 232.5,444.5C 232.833,444.5 233.167,444.5 233.5,444.5C 234.959,444.567 236.292,444.234 237.5,443.5C 238.833,443.167 240.167,442.833 241.5,442.5 Z"/></g>
<g><path style="opacity:0.984" fill="#daad54" d="M 232.5,444.5 C 231.5,445.167 230.5,445.833 229.5,446.5C 222.203,447.49 214.87,448.156 207.5,448.5C 207.5,448.167 207.5,447.833 207.5,447.5C 210.545,447.492 213.545,447.159 216.5,446.5C 217.833,446.167 219.167,445.833 220.5,445.5C 222.5,445.5 224.5,445.5 226.5,445.5C 228.435,444.85 230.435,444.517 232.5,444.5 Z"/></g>
<g><path style="opacity:0.741" fill="#cee1a0" d="M 159.5,446.5 C 163.534,446.505 167.534,446.838 171.5,447.5C 173.948,448.473 176.615,448.806 179.5,448.5C 183.167,448.5 186.833,448.5 190.5,448.5C 194.5,448.5 198.5,448.5 202.5,448.5C 202.5,448.833 202.5,449.167 202.5,449.5C 194.344,450.657 186.01,450.823 177.5,450C 171.154,449.944 165.154,448.777 159.5,446.5 Z"/></g>
<g><path style="opacity:0.159" fill="#f7eec7" d="M 229.5,446.5 C 220.812,449.029 211.812,450.029 202.5,449.5C 202.5,449.167 202.5,448.833 202.5,448.5C 204.167,448.5 205.833,448.5 207.5,448.5C 214.87,448.156 222.203,447.49 229.5,446.5 Z"/></g>
</svg>
